<svg xmlns="http://www.w3.org/2000/svg" viewBox="0 0 766 256" width="766" height="256" color="#15212A">
  <title>Spells</title>
  <defs>
    <linearGradient id="spells-wordmark-tile" x1="16" y1="16" x2="240" y2="240" gradientUnits="userSpaceOnUse">
      <stop offset="0" stop-color="#5B3CF0"/>
      <stop offset="1" stop-color="#16B4E8"/>
    </linearGradient>
  </defs>
  <rect x="16" y="16" width="224" height="224" rx="56" fill="url(#spells-wordmark-tile)"/>
  <g fill="#FFFFFF">
    <rect x="32" y="96" width="32" height="64" rx="16"/>
    <rect x="80" y="64" width="32" height="128" rx="16"/>
    <path d="M172 48 Q181.9 113.1 216 132 Q181.9 150.9 172 216 Q162.1 150.9 128 132 Q162.1 113.1 172 48Z"/>
    <path d="M206 36 Q211.5 56.5 232 62 Q211.5 67.5 206 88 Q200.5 67.5 180 62 Q200.5 56.5 206 36Z"/>
  </g>
  <g fill="currentColor">
    <path d="
      M298 173.2
      C309.2 181.5 322.6 186 336.5 186
      C347.2 186 358.3 183.3 367 176.8
      C375.1 170.6 380.2 161.2 380.2 151
      C380.2 146 379 141.1 376.4 136.8
      C374 132.8 370.6 129.5 366.7 127
      C358.9 121.7 349.6 119 340.6 116.4
      C333.5 114.3 325.7 112.2 319.4 108.1
      C316.2 105.9 314 103.1 314 99
      C314 86.3 329.5 82 339.7 82
      C347.8 82 355.8 84.6 361.3 90.8
      A9 9 0 0 0 374.8 78.8
      C365.9 68.8 352.9 64 339.7 64
      C328.9 64 317.9 66.7 309.2 73.2
      C301.1 79.4 296 88.8 296 99
      C296 104 297.2 108.9 299.8 113.2
      C302.2 117.2 305.6 120.5 309.5 123
      C317.3 128.3 326.6 131 335.6 133.6
      C342.7 135.7 350.5 137.8 356.7 141.9
      C360 144.1 362.2 146.9 362.2 151
      C362.2 163.7 346.7 168 336.5 168
      C326.5 168 316.8 164.8 308.8 158.8
      A9 9 0 0 0 298 173.2Z"/>
    <path d="
      M398.2 109
      L398.2 213
      A9 9 0 0 0 416.2 213
      L416.2 109
      A9 9 0 0 0 398.2 109Z"/>
    <path d="
      M398.2 142
      A44 44 0 1 0 486.2 142
      A44 44 0 1 0 398.2 142Z M416.2 142
      A26 26 0 1 1 468.2 142
      A26 26 0 1 1 416.2 142Z"/>
    <path d="
      M509.2 133
      L579.2 133
      A9 9 0 0 1 579.2 151
      L509.2 151
      A9 9 0 0 1 509.2 133Z"/>
    <path d="
      M588.2 142
      A44 44 0 1 0 569.4 178
      A9 9 0 0 0 559.1 163.3
      A26 26 0 1 1 570.2 142
      A9 9 0 0 0 588.2 142Z"/>
    <path d="
      M606.2 69
      L606.2 175
      A9 9 0 0 0 624.2 175
      L624.2 69
      A9 9 0 0 0 606.2 69Z"/>
    <path d="
      M646.2 69
      L646.2 175
      A9 9 0 0 0 664.2 175
      L664.2 69
      A9 9 0 0 0 646.2 69Z"/>
    <path d="
      M684.9 176.9
      C693.2 182.9 703.3 186 713.6 186
      C721.6 186 730 184.1 736.6 179.3
      C743 174.7 747.2 167.5 747.2 159.5
      C747.2 151.6 742.9 144.9 736.3 140.8
      C730.5 137.1 723.7 135.1 717.1 133.3
      C712.3 132 707 130.7 702.7 128
      C701.3 127.2 700.2 126.2 700.2 124.5
      C700.2 122.3 701.6 120.5 703.3 119.3
      C706.8 116.7 711.5 116 715.8 116
      C720.8 116 725.9 117.4 729.4 121.1
      A9 9 0 0 0 742.5 108.8
      C735.6 101.4 725.8 98 715.8 98
      C707.8 98 699.4 99.9 692.8 104.7
      C686.4 109.3 682.2 116.5 682.2 124.5
      C682.2 132.4 686.5 139.1 693.1 143.2
      C698.9 146.9 705.7 148.9 712.3 150.7
      C717.1 152 722.4 153.3 726.7 156
      C728.1 156.8 729.2 157.8 729.2 159.5
      C729.2 161.7 727.8 163.5 726.1 164.7
      C722.6 167.3 717.9 168 713.6 168
      C707 168 700.6 166.1 695.3 162.2
      A9 9 0 0 0 684.9 176.9Z"/>
  </g>
</svg>
